<?xml version="1.0" encoding="UTF-8" standalone="no"?>
<!-- Created with Inkscape (http://www.inkscape.org/) -->

<svg
   width="800"
   height="1000"
   viewBox="0 0 211.66666 264.58333"
   version="1.1"
   id="svg5"
   inkscape:version="1.1.1 (c3084ef, 2021-09-22)"
   sodipodi:docname="preview-instagram.svg"
   inkscape:export-filename="/Users/irina/github/kvissentalihoov.ee/favicon/preview-instagram.png"
   inkscape:export-xdpi="199.96799"
   inkscape:export-ydpi="199.96799"
   xmlns:inkscape="http://www.inkscape.org/namespaces/inkscape"
   xmlns:sodipodi="http://sodipodi.sourceforge.net/DTD/sodipodi-0.dtd"
   xmlns="http://www.w3.org/2000/svg"
   xmlns:svg="http://www.w3.org/2000/svg">
  <sodipodi:namedview
     id="namedview7"
     pagecolor="#ffffff"
     bordercolor="#111111"
     borderopacity="1"
     inkscape:pageshadow="0"
     inkscape:pageopacity="0"
     inkscape:pagecheckerboard="1"
     inkscape:document-units="mm"
     showgrid="false"
     units="px"
     inkscape:zoom="0.49976852"
     inkscape:cx="468.21677"
     inkscape:cy="461.21352"
     inkscape:window-width="1312"
     inkscape:window-height="783"
     inkscape:window-x="0"
     inkscape:window-y="25"
     inkscape:window-maximized="0"
     inkscape:current-layer="layer2" />
  <defs
     id="defs2" />
  <g
     inkscape:label="Background"
     inkscape:groupmode="layer"
     id="layer1">
    <rect
       style="fill:#ffffff;fill-opacity:1;stroke:none;stroke-width:0;stroke-linecap:square"
       id="rect846"
       width="211.66667"
       height="264.58334"
       x="-7.1054274e-15"
       y="0" />
  </g>
  <g
     inkscape:groupmode="layer"
     id="layer3"
     inkscape:label="Title" />
  <g
     inkscape:groupmode="layer"
     id="layer2"
     inkscape:label="Icons">
    <g
       id="g2122"
       transform="translate(-52.916661,42.333333)">
      <g
         id="g2021">
        <path
           d="m 225.50458,23.884082 c 0.49445,-0.126038 1.01193,-0.192692 1.54517,-0.192692 3.45149,0 6.25097,2.798274 6.25097,6.250973 0,3.452699 -2.79948,6.250973 -6.25097,6.250973 -3.4527,0 -6.25098,-2.798274 -6.25098,-6.250973 0,-2.919464 2.00085,-5.371135 4.70581,-6.058281 z"
           fill="#ff4893"
           id="path829"
           style="stroke-width:0.0379085" />
        <path
           d="m 209.67112,29.942363 h -6.25097 l 2.27837,-5.821961 c 2.32563,0.910136 3.9726,3.173962 3.9726,5.821961 z"
           fill="#5fceff"
           id="path831"
           style="stroke-width:0.0379085" />
        <path
           d="m 203.42015,29.942363 h 6.25097 c 0,3.452699 -2.79948,6.250973 -6.25097,6.250973 -3.45149,0 -6.25097,-2.798274 -6.25097,-6.250973 0,-3.452699 2.79948,-6.250973 6.25097,-6.250973 0.80349,0 1.57304,0.151487 2.27837,0.429012 z"
           fill="#5fceff"
           id="path833"
           style="stroke-width:0.0379085" />
        <path
           d="m 203.42015,37.041665 c -3.91455,0 -7.0993,-3.184749 -7.0993,-7.099302 0,-3.914554 3.18475,-7.099302 7.0993,-7.099302 0.89523,0 1.76622,0.164091 2.58898,0.48791 2.73937,1.072046 4.51032,3.667326 4.51032,6.611392 0,3.914553 -3.18475,7.099302 -7.0993,7.099302 z m 0,-12.501825 c -2.97909,0 -5.40265,2.423555 -5.40265,5.402523 0,2.978968 2.42368,5.402644 5.40265,5.402644 2.97897,0 5.40264,-2.423676 5.40264,-5.402644 0,-2.240558 -1.34775,-4.215711 -3.43343,-5.031924 -0.62546,-0.246258 -1.28752,-0.370599 -1.96921,-0.370599 z m 23.6296,12.501825 c -3.91456,0 -7.0993,-3.184749 -7.0993,-7.099302 0,-3.251524 2.19802,-6.080944 5.3452,-6.880555 a 7.1082702,7.1082702 0 0 1 1.7541,-0.218747 c 3.91455,0 7.0993,3.184748 7.0993,7.099302 0,3.914553 -3.18487,7.099302 -7.0993,7.099302 z m 0,-12.501825 c -0.45325,0 -0.90262,0.05587 -1.33564,0.166272 -2.39495,0.608495 -4.06713,2.761675 -4.06713,5.236251 0,2.978968 2.42368,5.402644 5.40265,5.402644 2.97896,0 5.40264,-2.423676 5.40264,-5.402644 0,-2.978968 -2.42355,-5.402523 -5.40252,-5.402523 z"
           fill="#4f46a3"
           id="path835"
           style="stroke-width:0.0379085" />
        <path
           d="m 216.03723,30.790692 h -12.61708 a 0.84832903,0.84832903 0 0 1 -0.79004,-1.157484 l 4.58825,-11.721726 a 0.84832903,0.84832903 0 0 1 0.78992,-0.538932 h 14.78152 a 0.84832903,0.84832903 0 0 1 0.73514,1.271767 L 216.77212,30.3658 a 0.84820784,0.84820784 0 0 1 -0.73489,0.424892 z m -11.37404,-1.696658 h 10.8837 l 5.7753,-10.024826 H 208.5872 Z"
           fill="#4f46a3"
           id="path837"
           style="stroke-width:0.0379085" />
        <path
           d="m 208.18049,15.723156 h -6.19402 a 0.84832903,0.84832903 0 1 1 0,-1.696657 h 6.19402 a 0.84832903,0.84832903 0 1 1 0,1.696657 z m 17.07686,-3.443003 h -6.19523 a 0.8483295,0.8483295 0 1 1 0,-1.696659 h 6.19523 a 0.8483295,0.8483295 0 1 1 0,1.696659 z"
           fill="#4f46a3"
           id="path841"
           style="stroke-width:0.0379085" />
        <g
           id="g1921">
          <text
             xml:space="preserve"
             style="font-size:14.1111px;line-height:1.25;font-family:antario;-inkscape-font-specification:antario;stroke-width:0.264583"
             x="158.40204"
             y="101.11153"
             id="text2935"><tspan
               sodipodi:role="line"
               style="font-style:normal;font-variant:normal;font-weight:normal;font-stretch:normal;font-size:14.1111px;font-family:'Andale Mono';-inkscape-font-specification:'Andale Mono';text-align:center;text-anchor:middle;stroke-width:0.264583"
               x="158.40204"
               y="101.11153"
               id="tspan2937">Kvissentali hoovimüük</tspan></text>
          <path
             d="m 216.03783,30.790813 a 0.84711713,0.84711713 0 0 1 -0.68702,-0.349875 L 204.40276,15.373524 a 0.8483398,0.8483398 0 0 1 1.37247,-0.997514 l 10.94829,15.067656 a 0.84832903,0.84832903 0 0 1 -0.18772,1.184874 0.84432976,0.84432976 0 0 1 -0.49797,0.162273 z m 11.01131,1.14e-4 a 0.84857142,0.84857142 0 0 1 -0.82142,-0.638906 l -4.71901,-18.510539 a 0.84832903,0.84832903 0 0 1 0.61261,-1.031568 c 0.45289,-0.115979 0.91583,0.158395 1.03157,0.612494 l 4.71901,18.510417 a 0.84857142,0.84857142 0 0 1 -0.82276,1.058109 z"
             fill="#4f46a3"
             id="path839"
             style="stroke-width:0.0379085" />
          <g
             id="g917"
             transform="matrix(0.0292271,0,0,0.0292271,200.44153,48.475177)">
            <path
               d="m 940.99241,508.73916 c 1.15089,97.50554 -30.72223,194.49958 -93.34956,273.14339 h -0.032 L 689.36418,750.9685 626.22534,681.05223 697.19659,462.76769 820.21342,444.35353 Z"
               fill="#ffb578"
               id="path872" />
            <path
               d="m 940.99241,508.73916 -120.77899,-64.38563 67.16693,-138.4259 c 35.22987,63.52247 52.84481,133.27889 53.61206,202.81153 z"
               fill="#5fceff"
               id="path874" />
            <path
               d="M 887.38035,305.92763 820.21342,444.35353 697.19659,462.76769 509.25066,327.92232 v -93.09381 l 0.92711,-0.73529 150.35034,-122.34548 0.35166,-0.95907 c 72.85742,27.0458 139.28907,74.13618 190.31164,140.15223 13.65077,17.64691 25.7031,36.0291 36.18894,54.98673 z"
               fill="#ffb578"
               id="path876" />
            <path
               d="m 847.61088,781.88255 h 0.032 c -21.09956,26.5343 -45.71572,50.95863 -73.72059,72.60167 -32.83219,25.38341 -68.18994,45.26814 -104.95432,59.78209 L 689.36418,750.9685 Z M 697.19659,462.76769 626.22534,681.05223 H 396.81558 L 325.84434,462.76769 509.25066,327.92232 Z"
               fill="#5fceff"
               id="path878" />
            <path
               d="m 626.22534,681.05223 63.13884,69.91627 -20.39624,163.29781 c -98.2728,38.93827 -206.61584,39.57765 -303.86563,4.66747 L 344.09865,750.9685 396.81558,681.05223 Z"
               fill="#ffb578"
               id="path880" />
            <path
               d="m 660.87977,110.78867 -0.35166,0.95907 -150.35035,122.34548 -0.9271,0.73529 -151.24548,-123.08077 c 98.33674,-37.371792 206.26418,-36.79635 302.87459,-0.95907 z"
               fill="#5fceff"
               id="path882" />
            <path
               d="m 509.25066,234.82851 v 93.09381 L 325.84434,462.76769 213.24941,444.35353 145.21932,304.1054 l -8.08817,-3.54856 c 27.30156,-47.7937 64.28972,-91.11174 110.54891,-126.88508 34.43064,-26.63021 71.6426,-47.21826 110.32512,-61.92402 z"
               fill="#ffb578"
               id="path884" />
            <path
               d="m 325.84434,462.76769 70.97124,218.28454 -52.71693,69.91627 -168.41285,32.89613 c -1.79026,-2.20586 -3.54856,-4.44369 -5.30685,-6.71349 C 109.98945,699.0508 80.705816,606.72424 80.545971,515.101 h 0.03197 L 213.24941,444.35353 Z"
               fill="#ffb578"
               id="path886" />
            <path
               d="m 344.09865,750.9685 21.00366,167.96528 C 293.01214,893.07084 226.9961,847.67481 175.6858,783.86463 Z M 80.545971,515.101 C 80.418095,440.48528 99.631482,366.28516 137.13115,300.55684 l 8.08817,3.54856 68.03009,140.24813 L 80.57794,515.101 Z"
               fill="#5fceff"
               id="path888" />
            <path
               d="M 511.09528,966.7051 A 453.24412,453.24412 0 0 1 357.54163,939.99498 C 279.36776,911.95175 210.45213,862.80895 158.2467,797.88945 c -1.83822,-2.26981 -3.69882,-4.63232 -5.55942,-7.03319 -61.661861,-79.74994 -94.3438,-175.08799 -94.516433,-275.7169 -0.13427,-79.14253 20.447392,-157.17893 59.526333,-225.66938 29.57775,-51.78664 68.70145,-96.69673 116.29374,-133.50267 35.45685,-27.42304 74.50702,-49.341 116.06357,-65.136902 51.31988,-19.504305 105.29959,-29.392326 160.43977,-29.392326 54.20349,0 107.42233,9.545952 158.17317,28.372514 79.14892,29.379534 148.38745,80.366944 200.23482,147.447564 a 453.54143,453.54143 0 0 1 38.06233,57.84156 c 36.07705,65.04419 55.58775,138.8415 56.41255,213.39647 1.22761,104.20306 -33.6538,206.2514 -98.22485,287.32806 a 453.01075,453.01075 0 0 1 -77.54407,76.37081 451.63288,451.63288 0 0 1 -110.42103,62.88948 c -52.9567,20.97807 -108.84496,31.62056 -166.0919,31.62056 z m -0.60422,-860.51357 c -49.68626,0 -98.31436,8.90657 -144.53518,26.47355 -37.42934,14.22942 -72.61765,33.97988 -104.58349,58.70793 -42.90883,33.18065 -78.17386,73.65344 -104.81046,120.28347 -35.21069,61.71621 -53.75912,132.05448 -53.63764,203.40615 0.15665,90.65778 29.60332,176.55537 85.1591,248.39937 1.64641,2.12594 3.3024,4.2327 4.98717,6.31388 47.09038,58.56087 109.17424,102.83478 179.58923,128.09351 a 408.62175,408.62175 0 0 0 138.43549,24.07907 c 51.57883,0 101.92046,-9.58431 149.63104,-28.4876 a 407.08723,407.08723 0 0 0 99.5068,-56.68109 408.19017,408.19017 0 0 0 69.89709,-68.82613 C 888.30106,694.90441 919.72342,602.9455 918.62049,509.0045 917.8788,441.83757 900.30543,375.37396 867.81211,316.78431 A 409.64476,409.64476 0 0 0 833.49335,264.63643 C 786.76422,204.1766 724.38625,158.23391 653.09531,131.76995 A 408.68888,408.68888 0 0 0 510.49106,106.19153 Z"
               fill="#4f46a3"
               id="path890" />
            <path
               d="M 626.22534,703.43055 H 396.81558 A 22.378321,22.378321 0 0 1 375.5338,687.97033 L 304.56255,469.68899 a 22.371927,22.371927 0 0 1 8.02423,-24.94863 L 495.99311,309.89499 a 22.378321,22.378321 0 0 1 26.30092,-0.15345 l 187.94592,134.84537 a 22.378321,22.378321 0 0 1 8.23523,25.10208 l -70.96805,218.28134 a 22.371927,22.371927 0 0 1 -21.28179,15.46022 z M 413.07184,658.67391 H 609.96909 L 670.85411,471.41212 509.41051,355.58193 352.12288,471.2235 Z M 509.23788,257.20683 A 22.282414,22.282414 0 0 1 495.12675,252.1845 L 344.24252,129.39785 a 22.330367,22.330367 0 0 1 -8.62845,-17.65011 c 0,-12.359223 9.99992,-22.378317 22.36234,-22.378317 5.14382,0 10.16615,1.774281 14.15908,5.022335 L 523.38098,217.47252 a 22.378321,22.378321 0 0 1 -14.1431,39.73431 z M 80.597122,537.48251 A 22.378321,22.378321 0 0 1 70.047342,495.35373 L 183.71643,434.74045 125.08522,313.87194 a 22.381518,22.381518 0 0 1 40.27139,-19.53628 l 68.0301,140.24814 a 22.378321,22.378321 0 0 1 -9.6035,29.5138 L 91.111736,534.84507 a 22.295202,22.295202 0 0 1 -10.514614,2.63744 z M 365.07353,941.3153 A 22.381518,22.381518 0 0 1 342.89662,921.7087 L 324.86609,777.52517 179.97285,805.82735 c -12.11946,2.3817 -23.88086,-5.54023 -26.25297,-17.67247 a 22.378321,22.378321 0 0 1 17.67248,-26.25297 l 168.41285,-32.89613 a 22.378321,22.378321 0 0 1 26.49274,19.18781 l 21.00365,167.96528 a 22.378321,22.378321 0 0 1 -22.22807,25.15643 z m 575.9029,-410.19462 a 22.323974,22.323974 0 0 1 -10.50822,-2.63425 l -120.779,-64.38563 a 22.378321,22.378321 0 0 1 -9.60669,-29.517 l 67.02307,-138.12859 c 4.69945,-10.09582 16.30101,-15.3771 27.16409,-11.8733 11.7614,3.79473 18.23513,16.35855 14.4436,28.11996 l -0.032,0.0959 a 22.960157,22.960157 0 0 1 -1.16368,2.89959 l -57.7616,119.04309 101.77021,54.25144 a 22.378321,22.378321 0 0 1 -10.54978,42.12879 z M 668.96794,936.66061 a 22.365533,22.365533 0 0 1 -22.20569,-25.16922 l 20.39944,-163.2978 a 22.384715,22.384715 0 0 1 26.49593,-19.18781 l 158.2467,30.91405 a 22.375124,22.375124 0 0 1 17.67248,26.25296 22.365533,22.365533 0 0 1 -26.25297,17.67248 L 708.59994,777.52837 691.21199,916.7471 a 22.394306,22.394306 0 0 1 -22.24405,19.91351 z"
               fill="#4f46a3"
               id="path892" />
            <path
               d="m 509.25066,350.30065 a 22.378321,22.378321 0 0 1 -22.37832,-22.37833 v -93.09381 a 22.378321,22.378321 0 1 1 44.75664,0 v 93.09381 a 22.378321,22.378321 0 0 1 -22.37832,22.37833 z m 187.91716,134.84856 a 22.381518,22.381518 0 0 1 -3.28322,-44.51368 l 123.01683,-18.41416 a 22.381518,22.381518 0 0 1 6.62398,44.26432 l -123.01683,18.41416 c -1.12211,0.16944 -2.23783,0.24936 -3.34076,0.24936 z m -7.79725,288.19761 a 22.314383,22.314383 0 0 1 -16.6143,-7.38165 L 609.61743,696.0489 a 22.379096,22.379096 0 0 1 33.21902,-29.99654 l 63.13884,69.91627 a 22.378321,22.378321 0 0 1 -16.60472,37.37819 z m -345.2879,0 a 22.378321,22.378321 0 0 1 -17.85151,-35.85007 l 52.71693,-69.91627 a 22.371927,22.371927 0 0 1 31.34244,-4.39574 22.378321,22.378321 0 0 1 4.39574,31.33924 l -52.71693,69.91627 a 22.349549,22.349549 0 0 1 -17.88667,8.90657 z M 325.86991,485.14921 c -1.19884,0 -2.41366,-0.0959 -3.63807,-0.29731 L 209.63691,466.43774 a 22.378321,22.378321 0 0 1 7.225,-44.16841 l 112.59493,18.41416 a 22.378321,22.378321 0 0 1 -3.58693,44.46572 z"
               fill="#4f46a3"
               id="path894" />
            <path
               d="m 510.19375,256.47154 a 22.378321,22.378321 0 0 1 -14.1367,-39.7375 L 646.40739,94.388561 a 22.379151,22.379151 0 1 1 28.24784,34.718369 L 524.30808,251.4524 a 22.314383,22.314383 0 0 1 -14.11433,5.01914 z"
               fill="#4f46a3"
               id="path896" />
          </g>
          <g
             id="g986"
             transform="matrix(0.02919663,0,0,0.02919663,143.76463,8.8415927)">
            <path
               d="m 927.24736,122.83904 c 54.50752,54.53824 54.50752,142.8992 0,197.40672 L 729.84064,122.83904 c 54.5024,-54.50752 142.8992,-54.50752 197.40672,0 z"
               fill="#5fceff"
               id="path947" />
            <path
               d="m 883.2256,527.34464 c 0,202.17344 -163.90656,366.04416 -366.04416,366.04416 -202.17344,0 -366.04416,-163.87072 -366.04416,-366.04416 0,-202.20416 163.87072,-366.04416 366.04416,-366.04416 202.1376,0 366.04416,163.84 366.04416,366.04416 z m -93.51168,0 c 0,-150.51264 -122.02496,-272.56832 -272.5376,-272.56832 -150.54336,0 -272.56832,122.05568 -272.56832,272.56832 0,150.51264 122.02496,272.5376 272.56832,272.5376 150.51264,0 272.5376,-122.02496 272.5376,-272.5376 z"
               fill="#8b87c1"
               id="path949" />
            <path
               d="M 559.47264,526.6432 A 41.53856,41.53856 0 0 0 517.9136,485.08416 c -0.256,0 -0.48128,0 -0.73728,0.0307 -22.56896,0.35328 -40.82688,18.79552 -40.82688,41.52832 0,22.95296 18.6368,41.55904 41.55904,41.55904 a 41.51296,41.51296 0 0 0 41.52832,-40.8576 c 0.0358,-0.22528 0.0358,-0.48128 0.0358,-0.70144 z m -42.2912,-271.86688 c 150.51264,0 272.5376,122.05568 272.5376,272.56832 0,150.51264 -122.02496,272.5376 -272.5376,272.5376 -150.54336,0 -272.56832,-122.02496 -272.56832,-272.5376 0,-150.51264 122.02496,-272.56832 272.56832,-272.56832 z"
               fill="#ffb578"
               id="path951" />
            <path
               d="M 296.78592,122.83904 99.37408,320.25088 c -54.53824,-54.50752 -54.53824,-142.86848 0,-197.40672 54.50752,-54.51264 142.90432,-54.51264 197.41184,-0.005 z"
               fill="#ff4893"
               id="path953" />
            <path
               d="m 517.18144,915.76832 c -214.17472,0 -388.42368,-174.24896 -388.42368,-388.42368 0,-214.17472 174.24896,-388.42368 388.42368,-388.42368 214.17472,0 388.42368,174.24896 388.42368,388.42368 0,214.17472 -174.24896,388.42368 -388.42368,388.42368 z m 0,-732.08832 C 327.68,183.68 173.5168,337.84832 173.5168,527.34464 c 0,189.49632 154.16832,343.66464 343.66464,343.66464 189.49632,0 343.66464,-154.16832 343.66464,-343.66464 C 860.84608,337.8432 706.67776,183.68 517.18144,183.68 Z"
               fill="#4f46a3"
               id="path955" />
            <path
               d="m 517.18144,822.26176 c -162.6368,0 -294.94784,-132.29568 -294.94784,-294.912 0,-162.63168 132.31104,-294.94784 294.94784,-294.94784 162.61632,0 294.912,132.31104 294.912,294.94784 0,162.6112 -132.29568,294.912 -294.912,294.912 z m 0,-545.10592 c -137.9584,0 -250.1888,112.23552 -250.1888,250.1888 0,137.93792 112.23552,250.15808 250.1888,250.15808 137.93792,0 250.15808,-112.22016 250.15808,-250.15808 -0.005,-137.95328 -112.22016,-250.1888 -250.15808,-250.1888 z"
               fill="#4f46a3"
               id="path957" />
            <path
               d="m 517.18144,549.72416 a 22.37952,22.37952 0 0 1 -22.37952,-22.37952 v -196.864 a 22.379529,22.379529 0 0 1 44.75904,-0.041 V 527.3446 a 22.38464,22.38464 0 0 1 -22.37952,22.37952 z"
               fill="#4f46a3"
               id="path959" />
            <path
               d="M 649.8816,549.72416 H 517.17632 a 22.37952,22.37952 0 0 1 0,-44.75904 H 649.8816 a 22.37952,22.37952 0 0 1 0,44.75904 z"
               fill="#4f46a3"
               id="path961" />
            <path
               d="m 517.9136,590.58176 c -35.25632,0 -63.93856,-28.68224 -63.93856,-63.93856 0,-34.43712 27.776,-62.93504 62.07488,-63.88736 0.60416,-0.0358 1.20832,-0.0512 1.85856,-0.0512 35.25632,0 63.93856,28.68224 63.93856,63.93856 0,0.51712 -0.0102,1.13152 -0.0512,1.83808 -0.95232,34.31424 -29.45024,62.10048 -63.88224,62.10048 z m 0.37888,-83.11808 c -0.25088,0.0154 -0.50688,0.0205 -0.76288,0.0256 -10.36288,0.16384 -18.79552,8.7552 -18.79552,19.15392 a 19.2,19.2 0 0 0 19.17952,19.17952 c 10.39872,0 18.99008,-8.448 19.15392,-18.82624 l 0.0256,-0.7424 a 19.21536,19.21536 0 0 0 -18.80064,-18.7904 z M 153.8304,965.86752 A 22.3744,22.3744 0 0 1 134.55872,932.1472 v -0.005 l 91.3664,-155.33568 a 22.3744,22.3744 0 0 1 30.63296,-7.94112 22.3744,22.3744 0 0 1 7.94624,30.62784 v 0.005 l -91.3664,155.33568 a 22.3744,22.3744 0 0 1 -19.30752,11.0336 z m 723.85536,0 a 22.35392,22.35392 0 0 1 -19.30752,-11.0336 l -91.3664,-155.33568 a 22.3744,22.3744 0 0 1 7.936,-30.63296 h 0.005 a 22.3744,22.3744 0 0 1 30.62784,7.93088 l 0.005,0.0102 91.3664,155.33568 a 22.3744,22.3744 0 0 1 -7.94112,30.63296 22.3232,22.3232 0 0 1 -11.32544,3.09248 z m 49.5616,-623.23712 a 22.38464,22.38464 0 0 1 -15.8208,-38.20032 c 45.68576,-45.68576 45.68576,-120.04864 -0.005,-165.76512 -45.69088,-45.69088 -120.04864,-45.69088 -165.76,0.005 a 22.377611,22.377611 0 1 1 -31.6416,-31.65184 c 63.1552,-63.15008 165.90848,-63.15008 229.05344,0 63.1347,63.17056 63.1347,165.92384 -0.005,229.05344 a 22.3232,22.3232 0 0 1 -15.8208,6.55872 z m -827.87328,0 a 22.31296,22.31296 0 0 1 -15.8208,-6.54848 c -30.60736,-30.58688 -47.4624,-71.26016 -47.4624,-114.51904 0,-43.25888 16.85504,-83.93216 47.45728,-114.53952 63.15008,-63.15008 165.90336,-63.15008 229.05344,0 a 22.37761,22.37761 0 0 1 -31.64672,31.64672 c -45.70112,-45.70112 -120.064,-45.696 -165.76512,0 C 93.04064,160.8192 80.83968,190.2592 80.83968,221.568 a 116.3776,116.3776 0 0 0 34.34496,82.86208 22.37952,22.37952 0 0 1 -15.81056,38.20032 z"
               fill="#4f46a3"
               id="path963" />
            <path
               d="m 927.24736,342.6304 a 22.32832,22.32832 0 0 1 -15.82592,-6.5536 L 714.01472,138.67008 a 22.37761,22.37761 0 1 1 31.64672,-31.64672 l 197.40672,197.40672 a 22.3744,22.3744 0 0 1 -15.8208,38.20032 z m -827.87328,0 A 22.36928,22.36928 0 0 1 83.55328,304.43008 L 280.96,107.02336 a 22.37761,22.37761 0 0 1 31.64672,31.64672 L 115.19488,336.0768 a 22.3232,22.3232 0 0 1 -15.8208,6.5536 z"
               fill="#4f46a3"
               id="path965" />
            <path
               d="m 328.38144,533.08416 a 22.37952,22.37952 0 0 1 -22.37952,-22.37952 c 0,-61.93152 28.47744,-118.74816 78.1312,-155.88352 a 22.376981,22.376981 0 0 1 26.8032,35.84 c -38.2464,28.60544 -60.18048,72.36096 -60.18048,120.04352 a 22.3744,22.3744 0 0 1 -22.3744,22.37952 z"
               fill="#ffffff"
               id="path967" />
          </g>
          <g
             id="g1160"
             transform="matrix(0.02709177,0,0,0.02709177,91.329825,9.958358)">
            <path
               d="m 705.79626,479.00796 -0.22378,0.0959 31.96903,498.20536 H 286.84212 L 318.81115,479.10387 318.07586,478.84812 162.83425,898.34573 49.887671,833.16088 242.27729,294.93029 c 21.1635,-36.70045 58.27955,-68.60554 97.92114,-81.29725 15.60089,-5.01913 31.61737,-7.06515 47.18629,-5.24292 12.14823,1.40664 24.00874,5.14702 35.26184,11.63673 49.96759,49.96759 137.53077,51.94967 189.51241,0 6.10609,-3.51659 12.30808,-6.23396 18.54204,-8.21604 13.87456,-4.37976 28.00487,-5.08308 41.87943,-2.81328 43.60575,7.03319 84.90974,43.2541 109.58983,85.93276 L 974.52793,833.16088 861.58134,898.34573 Z M 648.28397,898.98511 616.31494,729.54925 H 411.68118 l -31.96903,169.43586 z"
               fill="#42bc90"
               id="path1121" />
            <path
               d="m 616.31494,729.54925 31.96903,169.43586 H 379.71215 l 31.96903,-169.43586 z"
               fill="#ff4893"
               id="path1123" />
            <path
               d="m 630.70101,211.81081 c -6.23396,1.98208 -12.43596,4.69944 -18.54204,8.21604 -51.98164,51.94967 -139.54482,49.96759 -189.51241,0 -11.2531,-6.48971 -23.11361,-10.23009 -35.26184,-11.63673 1.82224,-65.60045 55.59414,-118.221471 121.61019,-118.221471 67.1989,0 121.7061,54.475231 121.7061,121.642161 z"
               fill="#ffb578"
               id="path1125" />
            <path
               d="m 339.87874,212.642 c -0.47953,-91.87899 73.62468,-166.750457 165.50367,-167.198024 91.23961,-0.479535 165.69548,72.569694 167.19803,163.553554 -13.87456,-2.2698 -28.00487,-1.56648 -41.87943,2.81328 0,-67.16693 -54.5072,-121.642161 -121.7061,-121.642161 -66.01605,0 -119.78795,52.621021 -121.61019,118.221471 -15.56892,-1.82223 -31.5854,0.22379 -47.18629,5.24292 z"
               fill="#ffb578"
               id="path1127" />
            <path
               d="M 49.887671,855.54559 A 22.378321,22.378321 0 0 1 28.813687,825.62897 L 221.20331,287.40158 c 0.45396,-1.26597 1.01661,-2.48399 1.68796,-3.64767 24.45311,-42.40691 66.7897,-77.44178 110.48497,-91.43142 19.32208,-6.21798 38.37563,-8.28957 56.61076,-6.15724 a 113.42292,113.42292 0 0 1 43.83913,14.47878 22.378574,22.378574 0 0 1 -22.35914,38.77204 68.957198,68.957198 0 0 0 -26.65897,-8.79149 c -11.84773,-1.38745 -24.54582,0.0671 -37.75862,4.31582 -32.98885,10.56257 -65.15608,37.09686 -84.40464,69.49428 L 70.961656,840.69278 a 22.391109,22.391109 0 0 1 -21.073985,14.85281 z"
               fill="#4f46a3"
               id="path1129" />
            <path
               d="m 162.83106,920.73044 a 22.282414,22.282414 0 0 1 -7.76208,-1.40024 22.378321,22.378321 0 0 1 -13.22239,-28.75295 l 156.00567,-421.566 a 22.381518,22.381518 0 0 1 41.98173,15.51776 l -0.76726,2.07799 -155.24481,419.504 a 22.387912,22.387912 0 0 1 -20.99086,14.61944 z"
               fill="#4f46a3"
               id="path1131" />
            <path
               d="m 162.81188,920.72725 a 22.272823,22.272823 0 0 1 -11.16679,-2.9987 L 38.698511,852.5437 a 22.381518,22.381518 0 0 1 -8.196859,-30.56879 22.371927,22.371927 0 0 1 30.568786,-8.19366 L 174.01702,878.9661 a 22.381518,22.381518 0 0 1 -11.20514,41.76115 z M 974.52793,855.54559 A 22.391109,22.391109 0 0 1 953.45394,840.69278 L 761.79961,304.43148 c -23.25747,-39.27075 -59.50396,-67.97255 -92.77733,-73.33695 -10.96857,-1.79666 -21.57909,-1.09974 -31.5822,2.062 a 72.4642,72.4642 0 0 0 -14.11113,6.26593 22.378527,22.378527 0 0 1 -22.33676,-38.78483 117.21125,117.21125 0 0 1 22.92819,-10.15017 c 16.79972,-5.31005 34.3731,-6.5025 52.27895,-3.57094 47.16391,7.60544 95.21336,44.7055 125.34417,96.81501 0.67775,1.17007 1.2468,2.39768 1.70076,3.67005 l 192.35765,538.23059 a 22.378321,22.378321 0 0 1 -21.07398,29.91342 z m -112.94339,65.18485 a 22.381518,22.381518 0 0 1 -20.98127,-14.59066 l -155.78189,-419.33457 -0.1087,-0.30051 -0.19501,-0.54347 a 22.378321,22.378321 0 0 1 42.17035,-14.98709 l 0.14066,0.39322 155.72754,419.18752 a 22.375124,22.375124 0 0 1 -20.97168,30.17556 z"
               fill="#4f46a3"
               id="path1133" />
            <path
               d="m 861.60052,920.72725 a 22.378321,22.378321 0 0 1 -11.20834,-41.76434 l 112.94659,-65.18486 a 22.378413,22.378413 0 0 1 22.37512,38.76245 l -112.94658,65.18485 a 22.253642,22.253642 0 0 1 -11.16679,3.0019 z m -124.05901,78.9603 H 286.84212 a 22.384715,22.384715 0 0 1 -22.33356,-23.81053 l 31.96903,-498.20536 c 0.79283,-12.33366 11.46089,-21.69738 23.76577,-20.90136 a 22.381518,22.381518 0 0 1 20.90136,23.76578 L 310.70381,954.93091 H 713.68302 L 683.24531,480.53608 a 22.378321,22.378321 0 0 1 20.89815,-23.76578 22.375124,22.375124 0 0 1 23.76578,20.90136 l 31.96903,498.20536 a 22.378321,22.378321 0 0 1 -22.33676,23.81053 z M 339.87555,235.02032 a 22.378321,22.378321 0 0 1 -22.37513,-22.26003 c -0.26534,-50.41516 19.12387,-97.91475 54.59032,-133.745635 35.46964,-35.830889 82.76782,-55.699641 133.18298,-55.945803 h 0.99743 c 102.35205,0 186.8366,82.870118 188.68121,185.273318 0.0352,0.86636 0.0416,1.7551 0.0416,2.61187 a 22.378321,22.378321 0 1 1 -44.75664,0 c 0,-0.28772 0.006,-0.59143 -0.006,-0.87915 a 51.188811,51.188811 0 0 1 -0.0224,-0.70012 C 648.91696,131.16893 584.41305,67.828691 506.26156,67.828691 h -0.76086 c -38.46514,0.188617 -74.54219,15.341937 -101.60078,42.678659 -27.05539,27.33352 -41.84426,63.56402 -41.64286,102.02596 a 22.381518,22.381518 0 0 1 -22.26003,22.49661 c -0.0384,-0.01 -0.0831,-0.01 -0.12148,-0.01 z"
               fill="#4f46a3"
               id="path1135" />
            <path
               d="m 517.39318,280.79358 c -40.30975,0 -80.60352,-14.97749 -110.56809,-44.94206 a 22.378321,22.378321 0 0 1 31.64614,-31.64614 c 42.03288,42.03288 115.80781,42.02968 157.86947,-0.003 a 22.378321,22.378321 0 0 1 31.63655,31.65573 c -29.97417,29.95498 -70.28711,44.93567 -110.58407,44.93567 z"
               fill="#4f46a3"
               id="path1137" />
            <path
               d="M 375.71602,497.39015 A 22.378321,22.378321 0 0 1 353.3377,475.01183 c 0,-39.78226 21.63664,-60.15292 39.0246,-76.52426 16.39052,-15.43465 24.94543,-24.39877 24.94543,-43.93504 0,-19.58103 -8.5613,-28.55474 -24.96461,-44.00857 -17.37837,-16.37134 -39.00542,-36.7452 -39.00542,-76.51468 a 22.378325,22.378325 0 1 1 44.75665,0 c 0,19.53308 8.55171,28.50039 24.93904,43.93824 17.38795,16.38093 39.03098,36.76758 39.03098,76.58501 0,39.77906 -21.63664,60.15292 -39.02139,76.52426 -16.39372,15.43465 -24.94863,24.39877 -24.94863,43.93824 a 22.378321,22.378321 0 0 1 -22.37833,22.37512 z m 255.75224,0 a 22.378321,22.378321 0 0 1 -22.37832,-22.37832 c 0,-39.78226 21.63984,-60.15292 39.0214,-76.52426 16.39372,-15.43465 24.94863,-24.39877 24.94863,-43.93504 0,-19.58103 -8.5613,-28.55474 -24.96461,-44.00857 -17.37837,-16.37134 -39.00542,-36.7452 -39.00542,-76.51468 a 22.378325,22.378325 0 1 1 44.75665,0 c 0,19.53308 8.55171,28.50039 24.93904,43.93824 17.38795,16.38093 39.03098,36.76758 39.03098,76.58501 0,39.77906 -21.63664,60.15292 -39.02139,76.52426 -16.39372,15.43465 -24.94863,24.39877 -24.94863,43.93824 a 22.378321,22.378321 0 0 1 -22.37833,22.37512 z m 16.87646,423.97328 H 379.70896 a 22.371927,22.371927 0 0 1 -21.9883,-26.5279 l 31.96903,-169.43586 a 22.375124,22.375124 0 0 1 21.9883,-18.22874 h 204.63376 a 22.378321,22.378321 0 0 1 21.99149,18.22874 l 31.64615,167.72871 c 0.50191,1.86699 0.77045,3.82989 0.77045,5.85673 a 22.371927,22.371927 0 0 1 -22.37512,22.37832 z M 406.7068,876.60679 H 621.28613 L 597.76332,751.92757 H 430.23281 Z"
               fill="#4f46a3"
               id="path1139" />
            <path
               d="m 630.70101,226.19687 a 14.386064,14.386064 0 0 1 -14.38607,-14.38606 c 0,-59.14271 -48.14535,-107.2561 -107.32003,-107.2561 -58.50652,0 -105.60649,45.78605 -107.23052,104.23502 -0.0288,1.00383 -0.0256,2.01405 -0.0256,3.02108 a 14.386065,14.386065 0 0 1 -28.77213,0 c 0,-1.29155 0,-2.5863 0.0384,-3.84268 2.05881,-74.1138 61.79294,-132.185544 135.98986,-132.185544 75.0409,0 136.09216,61.022484 136.09216,136.028224 a 14.386064,14.386064 0 0 1 -14.38606,14.38606 z"
               fill="#4f46a3"
               id="path1141" />
          </g>
          <g
             id="g2740"
             transform="translate(6.0338061e-6,33.33749)">
            <g
               id="g1067"
               transform="matrix(0.04223409,0,0,0.04223409,137.05864,71.018853)">
              <path
                 d="m 1002.1332,487.46057 v 47.25023 c 0,13.45896 -10.93342,24.3604 -24.39239,24.3604 h -67.7104 v -95.97103 h 67.7104 c 13.45897,0 24.39239,10.90144 24.39239,24.3604 z"
                 fill="#5fceff"
                 id="path1028" />
              <path
                 d="m 910.03041,559.0712 v 132.99116 c 0,13.52291 -5.46671,25.73507 -14.32213,34.5905 a 48.727196,48.727196 0 0 1 -34.59049,14.32212 c -27.01383,0 -48.91261,-21.89879 -48.91261,-48.91261 V 330.10901 c 0,-13.5229 5.4667,-25.73507 14.32212,-34.59049 8.85542,-8.85542 21.06759,-14.32213 34.59049,-14.32213 27.01383,0 48.91262,21.89879 48.91262,48.91262 z"
                 fill="#ffb578"
                 id="path1030" />
              <path
                 d="m 788.10053,559.0712 v 193.9561 c 0,13.49094 -5.46671,25.73507 -14.32213,34.59049 a 48.727196,48.727196 0 0 1 -34.59049,14.32213 c -27.01383,0 -48.88064,-21.89878 -48.88064,-48.91261 V 269.14407 c 0,-13.49093 5.4667,-25.73507 14.32212,-34.59049 8.82345,-8.85542 21.03562,-14.32213 34.55852,-14.32213 27.01383,0 48.91262,21.89879 48.91262,48.91262 z"
                 fill="#ff4893"
                 id="path1032" />
              <path
                 d="M 334.36408,463.10017 H 690.30726 V 559.0712 H 334.36408 Z"
                 fill="#5fceff"
                 id="path1034" />
              <path
                 d="m 334.36408,559.0712 v 193.9561 c 0,27.01383 -21.89878,48.91262 -48.91261,48.91262 -13.49093,0 -25.73507,-5.4667 -34.59049,-14.32213 A 48.78474,48.78474 0 0 1 236.53885,753.0273 V 269.14407 c 0,-27.01383 21.89879,-48.91262 48.91262,-48.91262 13.49093,0 25.73507,5.4667 34.59049,14.32213 a 48.78474,48.78474 0 0 1 14.32212,34.59049 z"
                 fill="#ff4893"
                 id="path1036" />
              <path
                 d="m 212.4342,559.0712 v 132.99116 c 0,27.01383 -21.89878,48.91262 -48.91261,48.91262 -13.49093,0 -25.7031,-5.4667 -34.55852,-14.32213 A 48.727196,48.727196 0 0 1 114.64094,692.06236 V 330.10901 c 0,-27.01383 21.89879,-48.91262 48.88065,-48.91262 13.49093,0 25.73507,5.4667 34.59049,14.32213 8.85542,8.85542 14.32212,21.06759 14.32212,34.59049 z"
                 fill="#ffb578"
                 id="path1038" />
              <path
                 d="M 114.64094,463.10017 V 559.0712 H 49.42412 c -13.458962,0 -24.360401,-10.90144 -24.3604,-24.3604 v -47.25023 c 0,-13.45896 10.901439,-24.3604 24.3604,-24.3604 z"
                 fill="#5fceff"
                 id="path1040" />
              <path
                 d="M 690.30727,581.44952 H 334.36408 a 22.378321,22.378321 0 1 1 0,-44.75664 h 355.94318 a 22.378321,22.378321 0 1 1 10e-6,44.75664 z m 121.89791,0 h -24.10465 a 22.378321,22.378321 0 1 1 0,-44.75664 h 24.10465 a 22.378321,22.378321 0 1 1 0,44.75664 z m 165.53563,0 h -67.7104 a 22.378321,22.378321 0 1 1 0,-44.75664 h 67.7104 c 1.11253,0 2.01405,-0.88874 2.01405,-1.98208 v -47.25023 a 1.998064,1.998064 0 0 0 -2.01405,-1.98208 h -67.7104 a 22.378321,22.378321 0 1 1 0,-44.75664 h 67.7104 c 25.78939,0 46.77069,20.96529 46.77069,46.73872 v 47.25023 c 0,25.77023 -20.9813,46.73872 -46.77069,46.73872 z M 690.30727,485.47849 H 334.36408 a 22.378321,22.378321 0 1 1 0,-44.75664 h 355.94318 a 22.378321,22.378321 0 1 1 10e-6,44.75664 z M 114.64094,581.44952 H 49.42412 c -25.773432,0 -46.738722,-20.96849 -46.738721,-46.73872 v -47.25023 c 0,-25.77343 20.968487,-46.73872 46.738721,-46.73872 h 65.21682 a 22.378321,22.378321 0 1 1 0,44.75664 H 49.42412 a 1.98208,1.98208 0 0 0 -1.982079,1.98208 v 47.25023 c 0,1.09334 0.888739,1.98208 1.982079,1.98208 h 65.21682 a 22.378321,22.378321 0 1 1 0,44.75664 z"
                 fill="#4f46a3"
                 id="path1042" />
              <path
                 d="M 285.45147,824.32144 A 70.83378,70.83378 0 0 1 235.0395,803.44566 70.83378,70.83378 0 0 1 214.16053,753.02731 V 269.14407 c 0,-39.30912 31.97862,-71.29094 71.29094,-71.29094 19.04715,0 36.953,7.41362 50.41516,20.87578 13.46216,13.46215 20.87578,31.36801 20.87578,50.41516 v 483.88324 c 0,39.31231 -31.98182,71.29413 -71.29094,71.29413 z m 0,-581.71167 c -14.63223,0 -26.5343,11.90207 -26.5343,26.5343 v 483.88324 c 0,7.09392 2.75893,13.75947 7.76528,18.76582 a 26.380844,26.380844 0 0 0 18.76902,7.77167 c 14.63222,0 26.53429,-11.90527 26.53429,-26.5375 V 269.14407 c 0,-7.09393 -2.75892,-13.75628 -7.76847,-18.76582 -5.00955,-5.00955 -11.67189,-7.76848 -18.76582,-7.76848 z"
                 fill="#4f46a3"
                 id="path1044" />
              <path
                 d="M 163.52159,763.3533 A 70.779432,70.779432 0 0 1 113.1384,742.47433 70.824189,70.824189 0 0 1 92.262621,692.06236 V 330.10901 c 0,-39.30912 31.969029,-71.29094 71.258969,-71.29094 19.04715,0 36.953,7.41362 50.41516,20.87578 13.46216,13.46216 20.87578,31.36801 20.87578,50.41516 v 361.95335 c 0,39.30912 -31.98182,71.29094 -71.29094,71.29094 z m 0,-459.77859 c -14.61305,0 -26.50233,11.90527 -26.50233,26.5343 v 361.95335 c 0,7.09393 2.75893,13.75628 7.76528,18.76263 a 26.329693,26.329693 0 0 0 18.73705,7.77167 c 14.63222,0 26.53429,-11.90527 26.53429,-26.5343 V 330.10901 c 0,-7.09393 -2.75892,-13.75947 -7.76847,-18.76902 -5.00955,-5.00955 -11.67189,-7.76528 -18.76582,-7.76528 z m 575.66632,520.74673 c -39.29313,0 -71.25897,-31.98182 -71.25897,-71.29413 V 269.14407 a 70.820992,70.820992 0 0 1 20.87898,-50.41516 c 13.39822,-13.45257 31.30407,-20.87578 50.37999,-20.87578 39.30912,0 71.29094,31.97862 71.29094,71.29094 v 483.88324 a 70.84337,70.84337 0 0 1 -20.87258,50.41835 c -13.47495,13.45896 -31.37441,20.87578 -50.41836,20.87578 z m 0,-581.71167 c -7.09073,0 -13.73389,2.74934 -18.70508,7.73651 a 26.387237,26.387237 0 0 0 -7.79724,18.79459 v 483.88324 c 0,14.63222 11.88928,26.53749 26.50232,26.53749 a 26.368056,26.368056 0 0 0 18.76902,-7.77167 26.364859,26.364859 0 0 0 7.76528,-18.76582 V 269.14407 c 0,-14.63223 -11.90527,-26.5343 -26.5343,-26.5343 z"
                 fill="#4f46a3"
                 id="path1046" />
              <path
                 d="m 861.11779,763.3533 c -39.31231,0 -71.29413,-31.98182 -71.29413,-71.29094 V 330.10901 c 0,-19.05035 7.41362,-36.9562 20.87897,-50.41836 a 70.83378,70.83378 0 0 1 50.41516,-20.87578 c 39.30912,0 71.29094,31.98182 71.29094,71.29094 v 361.95336 c 0,19.05034 -7.41362,36.9562 -20.87897,50.41516 -13.45577,13.46535 -31.36162,20.87897 -50.41197,20.87897 z m 0,-459.77859 a 26.364859,26.364859 0 0 0 -18.76582,7.76528 26.368056,26.368056 0 0 0 -7.77167,18.76902 v 361.95335 c 0,14.62903 11.90527,26.5343 26.53749,26.5343 a 26.33289,26.33289 0 0 0 18.76263,-7.76847 26.348875,26.348875 0 0 0 7.77167,-18.76582 V 330.10901 c 0,-14.62903 -11.90207,-26.5343 -26.5343,-26.5343 z"
                 fill="#4f46a3"
                 id="path1048" />
            </g>
            <g
               id="g1250"
               transform="matrix(0.02779137,0,0,0.02779137,199.58919,78.346822)">
              <path
                 d="m 751.0272,146.54464 c 40.7296,47.34464 60.6464,105.52832 60.6464,163.42528 0,70.5536 -29.57312,140.6976 -87.27552,190.3104 L 584.4992,620.57984 c 14.3872,-12.4672 21.22752,-32 21.22752,-56.17152 0,-55.40352 -35.90144,-134.90688 -98.75456,-207.98976 l 59.30496,-51.0208 a 41.53856,41.53856 0 0 0 58.5984,4.41344 l 61.25056,-52.65408 A 41.45664,41.45664 0 0 0 700.57472,225.63328 41.36448,41.36448 0 0 0 690.5344,198.5536 Z"
                 fill="#ffb578"
                 id="path1226" />
              <path
                 d="m 751.0272,146.54464 -60.48768,52.01408 a 41.56416,41.56416 0 0 0 -58.5984,-4.41344 l -61.25056,52.6848 a 41.41056,41.41056 0 0 0 -14.44864,31.52384 41.2672,41.2672 0 0 0 10.04032,27.04384 l -59.30496,51.0208 C 416.6656,251.40224 304.8704,199.41888 257.26976,240.33792 L 397.29152,119.9104 C 502.30784,29.59872 660.6848,41.49248 751.0272,146.54464 Z"
                 fill="#5fceff"
                 id="path1228" />
              <path
                 d="m 690.54464,198.55872 a 41.35424,41.35424 0 0 1 10.04032,27.07968 41.46688,41.46688 0 0 1 -14.44864,31.52384 l -61.25568,52.64896 a 41.53856,41.53856 0 0 1 -58.5984,-4.41344 41.29792,41.29792 0 0 1 -10.04032,-27.04384 41.4208,41.4208 0 0 1 14.44864,-31.52384 l 61.25056,-52.6848 a 41.56928,41.56928 0 0 1 58.60352,4.41344 z"
                 fill="#ff4893"
                 id="path1230" />
              <path
                 d="m 583.3728,564.4288 c 0,18.2784 -4.5568,31.488 -13.5168,39.2192 0,0.0512 -0.0512,0.0512 -0.0512,0.0512 l -0.4608,0.4096 -28.7232,24.6784 C 494.3872,668.5696 435.3536,687.9744 374.528,683.3664 313.7024,678.8096 258.2528,650.8032 218.4704,604.5696 A 228.3264,228.3264 0 0 1 163.2256,455.68 c 0,-66.7136 28.9792,-129.8944 79.4624,-173.312 l 29.0816,-24.9856 c 0.0512,-0.0512 0.0512,-0.0512 0.1024,-0.0512 32.7168,-28.16 130.3552,11.6224 218.1632,113.664 56.6784,65.9456 93.3376,141.8752 93.3376,193.4336 z"
                 fill="#ffffff"
                 id="path1232" />
              <path
                 d="m 768,131.9936 c 42.5984,49.5104 66.048,112.64 66.048,177.9712 0,79.7696 -34.6624,155.3408 -95.0784,207.3088 L 599.552,637.184 c -0.2048,0.1536 -0.4096,0.3072 -0.6144,0.512 l -29.1328,25.0368 c -51.456,44.288 -114.8416,65.9456 -177.92,65.9456 -74.8544,0 -149.1968,-30.5664 -202.9056,-90.0608 -47.9232,16.5376 -80.9472,62.208 -80.9472,113.2032 0,11.2128 1.6384,22.4768 4.8128,33.4848 18.3296,63.0784 84.3264,99.6864 147.5072,81.92 L 747.6224,672.0512 c 11.4688,-4.608 24.4736,0.9728 29.0816,12.4416 4.608,11.4688 -0.9728,24.5248 -12.4416,29.1328 l -488.3456,195.584 c -0.6656,0.3072 -1.3824,0.512 -2.0992,0.7168 -14.848,4.352 -30.3104,6.5536 -45.824,6.5536 -71.3728,0 -137.2672,-46.848 -158.1568,-118.7328 -4.3008,-14.8992 -6.5536,-30.3616 -6.5536,-45.9264 0,-65.1264 39.2192,-123.9552 97.5872,-150.1184 A 273.2288,273.2288 0 0 1 118.4768,455.68 c 0,-79.7696 34.6112,-155.2896 95.0272,-207.2576 L 382.72,102.9632 C 496.896,4.7104 669.7472,17.7152 767.9488,131.9424 H 768 Z m 21.2992,177.9712 c 0,-47.104 -14.6432,-92.8768 -41.5232,-131.1232 l -28.7744,24.7808 c 2.5088,6.8608 3.9424,14.2336 3.9424,21.9648 v 0.0512 c 0.0512,18.6368 -8.0896,36.352 -22.2208,48.4864 l -61.2352,52.6336 a 63.98464,63.98464 0 0 1 -41.6768,15.4624 c -11.2128,0 -21.7088,-2.8672 -30.8224,-7.8848 l -28.8256,24.7808 c 52.5312,66.1504 85.8112,138.3424 89.5488,194.816 L 709.8368,483.328 A 228.54656,228.54656 0 0 0 789.2992,309.9648 Z M 689.8688,169.6256 718.592,144.896 C 674.9184,103.168 617.984,81.7152 560.6912,81.7152 507.904,81.7152 454.912,99.84 411.904,136.8576 l -82.176,70.656 c 14.4384,3.1744 29.7472,8.3968 45.824,15.872 44.6464,20.736 91.392,56.5248 133.4272,101.7856 l 28.8768,-24.832 c -2.56,-6.8608 -3.9936,-14.2336 -3.9936,-21.9648 0,-18.688 8.0896,-36.352 22.2208,-48.5376 l 61.2864,-52.6336 c 11.5712,-9.984 26.368,-15.4624 41.6256,-15.4624 11.2128,-0.0512 21.7088,2.8672 30.8736,7.8848 z m -11.6736,56.0128 c 0,-4.608 -1.6384,-9.0112 -4.608,-12.4928 -3.6352,-4.2496 -8.96,-6.656 -14.592,-6.656 -3.2256,0 -7.9872,0.768 -12.4416,4.608 l -61.2864,52.6848 c -4.1984,3.6352 -6.656,8.96 -6.656,14.592 0,4.5568 1.6384,8.96 4.608,12.4416 3.6864,4.2496 9.0112,6.656 14.592,6.656 4.5568,0.0512 9.0112,-1.6384 12.4928,-4.608 l 61.2352,-52.6848 c 4.2496,-3.6352 6.656,-8.96 6.656,-14.5408 z M 569.856,603.648 c 8.96,-7.7312 13.5168,-20.9408 13.5168,-39.2192 0,-51.5584 -36.6592,-127.488 -93.3376,-193.4336 -87.808,-102.0416 -185.4464,-141.824 -218.1632,-113.664 -0.0512,0 -0.0512,0 -0.1024,0.0512 L 242.688,282.368 A 228.36224,228.36224 0 0 0 163.2256,455.68 c 0,54.6304 19.6096,107.4688 55.2448,148.8896 39.7824,46.2336 95.232,74.24 156.0576,78.7968 60.8256,4.608 119.8592,-14.7968 166.0928,-54.5792 l 28.7232,-24.6784 0.4608,-0.4096 c 0,0 0.0512,0 0.0512,-0.0512 z"
                 fill="#4f46a3"
                 id="path1234" />
              <path
                 d="M 835.92704,989.0304 A 22.37952,22.37952 0 0 1 829.696,945.152 c 50.9184,-14.78144 86.48192,-62.08 86.48192,-115.01568 0,-11.22816 -1.61792,-22.50752 -4.80256,-33.5104 A 119.0912,119.0912 0 0 0 854.04672,725.03296 118.97344,118.97344 0 0 0 762.89536,714.96192 22.38976,22.38976 0 0 1 750.4128,671.9744 c 42.21952,-12.25216 86.6816,-7.34208 125.19936,13.84448 38.52288,21.18656 66.48832,56.11008 78.7456,98.34496 a 165.1456,165.1456 0 0 1 6.57408,45.97248 c 0,72.72448 -48.83456,137.69728 -118.75328,157.99808 a 22.42048,22.42048 0 0 1 -6.25152,0.896 z"
                 fill="#4f46a3"
                 id="path1236" />
            </g>
            <g
               id="g1356"
               transform="matrix(0.0267824,0,0,0.0267824,92.675048,78.868879)">
              <path
                 d="m 763.03681,984.41914 h -30.91405 c -14.13032,0 -25.57523,-11.44491 -25.57523,-25.57522 V 630.64986 c 0,-14.13031 11.44491,-25.57523 25.57523,-25.57523 h 87.40332 c 14.09835,0 25.57523,11.44492 25.57523,25.57523 v 328.19406 c 0,14.13031 -11.47688,25.57522 -25.57523,25.57522 z"
                 fill="#5fceff"
                 id="path1323" />
              <path
                 d="m 819.52608,1006.7975 h -87.40332 c -26.44159,0 -47.95355,-21.512 -47.95355,-47.95358 V 630.64986 c 0,-26.44159 21.51196,-47.95355 47.95355,-47.95355 h 87.40332 c 26.44159,0 47.95355,21.51196 47.95355,47.95355 v 328.19406 c 0,26.44159 -21.51196,47.95358 -47.95355,47.95358 z M 732.12276,627.45295 a 3.196903,3.196903 0 0 0 -3.19691,3.19691 v 328.19406 a 3.196903,3.196903 0 0 0 3.19691,3.1969 h 87.40332 a 3.196903,3.196903 0 0 0 3.19691,-3.1969 V 630.64986 a 3.196903,3.196903 0 0 0 -3.19691,-3.19691 z"
                 fill="#4f46a3"
                 id="path1325" />
              <path
                 d="M 775.82442,627.45295 A 22.378321,22.378321 0 0 1 753.4461,605.07463 V 194.30457 a 22.378321,22.378321 0 1 1 44.75664,0 v 410.77006 a 22.378321,22.378321 0 0 1 -22.37832,22.37832 z"
                 fill="#4f46a3"
                 id="path1327" />
              <path
                 d="M 798.20274,216.68289 H 753.4461 A 22.378321,22.378321 0 0 1 731.06778,194.30457 V 44.529662 A 22.378321,22.378321 0 0 1 753.4461,22.151341 h 44.75664 a 22.378321,22.378321 0 0 1 22.37832,22.378321 V 194.30457 a 22.378321,22.378321 0 0 1 -22.37832,22.37832 z"
                 fill="#4f46a3"
                 id="path1329" />
              <path
                 d="m 491.12422,83.710905 a 175.36611,175.36611 0 0 1 60.13375,132.351785 c 0,96.80222 -78.73972,175.54194 -175.57391,175.54194 -96.77026,0 -175.50998,-78.73972 -175.50998,-175.54194 0,-51.47014 22.34635,-99.39171 60.16572,-132.351785 V 229.48968 c 0,12.37202 10.0063,22.37832 22.37832,22.37832 H 468.7459 c 12.34005,0 22.37832,-10.0063 22.37832,-22.37832 z M 398.06238,335.43505 v -12.78762 c 0,-12.34004 -10.00631,-22.37832 -22.37832,-22.37832 -12.34005,0 -22.37833,10.03828 -22.37833,22.37832 v 12.78762 c 0,12.37201 10.03828,22.37832 22.37833,22.37832 12.37201,0 22.37832,-10.00631 22.37832,-22.37832 z"
                 fill="#ff4893"
                 id="path1331" />
              <path
                 d="m 404.48815,434.44313 11.47688,527.58491 H 335.46702 L 346.9439,434.44313 c 9.43086,1.21483 19.02157,1.91814 28.74016,1.91814 9.78252,0 19.37323,-0.70331 28.80409,-1.91814 z"
                 fill="#5fceff"
                 id="path1333" />
              <path
                 d="m 479.26371,21.531142 c 72.02623,38.426774 116.7509,112.978548 116.7509,194.531548 0,95.77921 -61.44447,177.46008 -146.9936,207.73476 l 12.1802,560.12937 a 22.336761,22.336761 0 0 1 -22.37832,22.85788 h -126.2457 c -6.01018,0 -11.7646,-2.4297 -15.98451,-6.7135 a 22.518985,22.518985 0 0 1 -6.36184,-16.14438 l 12.1802,-560.12937 c -85.54912,-30.27467 -146.9936,-111.92358 -146.9936,-207.73476 0,-81.553 44.72467,-156.104775 116.7509,-194.531548 a 22.378321,22.378321 0 0 1 30.27467,9.20708 c 1.95011,3.644469 2.74934,7.608629 2.58949,11.444913 0.032,0.255752 0.0639,0.511504 0.0639,0.767257 V 207.11136 H 446.36758 V 42.950392 c 0,-0.223783 0,-0.479535 0.032,-0.735288 -0.19181,-3.868253 0.63938,-7.832412 2.58949,-11.476882 a 22.378321,22.378321 0 0 1 30.27467,-9.20708 z m 71.99426,194.531548 c 0,-51.47014 -22.34635,-99.39172 -60.13375,-132.351785 V 229.48968 c 0,12.37202 -10.03827,22.37832 -22.37832,22.37832 H 282.71812 c -12.37202,0 -22.37832,-10.0063 -22.37832,-22.37832 V 83.710905 A 175.28619,175.28619 0 0 0 200.17408,216.06269 c 0,96.80222 78.73972,175.54194 175.50998,175.54194 96.83419,0 175.57391,-78.73972 175.57391,-175.54194 z M 415.96503,962.02803 404.48815,434.44313 c -9.43086,1.21483 -19.02157,1.91814 -28.80409,1.91814 -9.71859,0 -19.3093,-0.70331 -28.74016,-1.91814 l -11.47688,527.5849 z"
                 fill="#4f46a3"
                 id="path1335" />
              <path
                 d="m 398.06238,322.64743 v 12.78762 c 0,12.37201 -10.00631,22.37832 -22.37832,22.37832 -12.34005,0 -22.37832,-10.00631 -22.37832,-22.37832 v -12.78762 c 0,-12.34004 10.03827,-22.37832 22.37832,-22.37832 12.37201,0 22.37832,10.03828 22.37832,22.37832 z"
                 fill="#4f46a3"
                 id="path1337" />
              <path
                 d="M 763.03681,1006.7975 A 22.378321,22.378321 0 0 1 740.65849,984.41914 V 712.68239 a 22.378321,22.378321 0 1 1 44.75664,0 v 271.73675 a 22.378321,22.378321 0 0 1 -22.37832,22.37836 z"
                 fill="#4f46a3"
                 id="path1339" />
            </g>
          </g>
          <g
             id="g1472"
             transform="matrix(0.03255944,0,0,0.03255944,87.595488,46.895427)">
            <path
               d="M 134.12352,549.12 42.24,650.24 v 103.68 l 32,58.88 158.72,-87.04"
               fill="#ffffff"
               id="path1439" />
            <path
               d="M 943.29344,313.05728 983.48032,382.68416 98.16064,893.9008 57.94304,824.27392 238.21824,720.18432 833.35168,376.5504 Z"
               fill="#ff4893"
               id="path1441" />
            <path
               d="m 943.29344,313.05728 -109.94176,63.488 c -37.46816,-64.99328 -35.99872,-141.81376 -2.74944,-203.2896 40.2176,33.09056 79.18592,81.77664 112.6912,139.8016 z"
               fill="#ffb578"
               id="path1443" />
            <path
               d="M 833.35168,376.54528 238.21824,720.18432 236.20608,716.66688 173.60896,608.26112 414.43328,241.86368 c 26.31168,33.18272 66.944,54.25152 111.98976,54.25152 2.36544,0 4.73088,-0.0307 7.12704,-0.15872 78.92992,-3.83488 139.8016,-70.9376 135.93088,-149.8368 l 0.70144,-6.26688 c 48.59392,-28.03712 105.65632,-11.73504 160.41984,33.408 -33.24416,61.47072 -34.71872,138.2912 2.74944,203.28448 z"
               fill="#5fceff"
               id="path1445" />
            <path
               d="M 414.42816,241.86368 173.60384,608.26112 134.12352,539.8784 383.70816,160.02048 a 142.31552,142.31552 0 0 0 30.72,81.8432 z"
               fill="#ffb578"
               id="path1447" />
            <path
               d="M 943.31904,335.4368 A 22.3744,22.3744 0 0 1 923.91936,324.2496 C 891.36128,267.86816 854.17984,221.62944 816.38912,190.5408 780.8256,161.2288 728.55552,132.01408 681.3696,159.232 a 22.37952,22.37952 0 0 1 -22.36928,-38.76352 c 54.144,-31.24224 120.1408,-18.63168 185.83552,35.52256 41.87136,34.44736 82.62144,84.89472 117.8368,145.87904 a 22.38464,22.38464 0 0 1 -19.3536,33.56672 z M 57.96864,846.65344 A 22.36416,22.36416 0 0 1 38.56896,835.46112 C 7.76192,782.1056 -0.42496,719.95904 15.5136,660.46976 31.45216,600.98048 69.6064,551.26528 122.94656,520.48896 a 22.378355,22.378355 0 0 1 22.36416,38.76864 c -42.9824,24.79616 -73.728,64.84992 -86.56896,112.78848 -12.84608,47.94368 -6.24128,98.02752 18.5856,141.0304 a 22.37952,22.37952 0 0 1 -19.35872,33.57696 z"
               fill="#4f46a3"
               id="path1449" />
            <path
               d="M 134.10304,562.25792 A 22.3744,22.3744 0 0 1 115.42528,527.5904 L 365.0048,147.7376 a 22.379066,22.379066 0 1 1 37.52448,24.3968 l -0.11776,0.1792 -249.58464,379.85792 a 22.3744,22.3744 0 0 1 -18.72384,10.0864 z M 98.18112,916.28544 a 22.3744,22.3744 0 0 1 -19.39968,-11.1872 l -40.2176,-69.62688 a 22.39488,22.39488 0 0 1 8.18688,-30.57664 L 932.10112,293.6832 a 22.36928,22.36928 0 0 1 30.57152,8.19712 l 40.18686,69.62688 a 22.3744,22.3744 0 0 1 -8.19198,30.5664 L 109.34784,913.28 a 22.28224,22.28224 0 0 1 -11.16672,3.00544 z m -9.66656,-83.82464 17.83296,30.86848 846.5664,-488.83712 -17.81248,-30.86336 z"
               fill="#4f46a3"
               id="path1451" />
            <path
               d="m 526.41792,318.4896 c -50.70848,0 -97.91488,-22.86592 -129.52064,-62.72512 -21.56544,-27.17696 -33.85344,-59.91424 -35.53792,-94.66368 a 22.375894,22.375894 0 0 1 44.6976,-2.2016 v 0.0358 a 119.66976,119.66976 0 0 0 25.90208,69.01248 c 23.07072,29.09696 57.4976,45.78304 94.45376,45.78304 1.9712,0 3.93728,-0.0205 5.9392,-0.13312 32.3072,-1.57184 61.97248,-15.58016 83.63008,-39.45984 A 119.81824,119.81824 0 0 0 647.12192,147.2 22.3744,22.3744 0 0 1 668.37504,123.75552 c 12.31872,-0.63488 22.84032,8.91392 23.44448,21.25824 2.16576,44.1344 -12.99456,86.46656 -42.69056,119.19872 -29.69088,32.73216 -70.35904,51.9424 -114.49856,54.08768 -2.38592,0.13312 -4.95104,0.18944 -8.21248,0.18944 z M 236.22144,739.0464 A 22.36416,22.36416 0 0 1 216.82176,727.85408 L 114.74432,551.0656 a 22.37776,22.37776 0 1 1 38.7584,-22.37952 l 102.07744,176.78848 a 22.38464,22.38464 0 0 1 -19.35872,33.57184 z"
               fill="#4f46a3"
               id="path1453" />
            <path
               d="M 173.58848,630.64064 A 22.37952,22.37952 0 0 1 154.9056,595.968 L 395.72992,229.57056 a 22.378065,22.378065 0 0 1 37.4016,24.58112 L 192.3072,620.54912 a 22.3488,22.3488 0 0 1 -18.71872,10.09152 z M 833.37216,398.92992 A 22.36928,22.36928 0 0 1 813.96224,387.72224 C 773.64736,317.78304 772.5056,233.63072 810.92096,162.6112 a 22.377634,22.377634 0 0 1 39.36768,21.28896 C 819.32288,241.152 820.23936,308.992 852.74112,365.36832 a 22.37952,22.37952 0 0 1 -19.36896,33.5616 z m -349.7728,192.6144 a 22.28736,22.28736 0 0 1 -8.53504,-1.69984 L 331.20256,530.41152 a 22.38041,22.38041 0 0 1 17.09056,-41.3696 l 143.86176,59.43296 a 22.3744,22.3744 0 0 1 -8.55552,43.06944 z m 79.9232,-54.3488 a 22.28736,22.28736 0 0 1 -8.53504,-1.69984 L 411.12576,476.06784 a 22.38041,22.38041 0 0 1 17.09056,-41.3696 l 143.86176,59.43296 a 22.38464,22.38464 0 0 1 -8.55552,43.06432 z m 89.51296,-44.75392 a 22.28736,22.28736 0 0 1 -8.53504,-1.69984 L 500.64384,431.3088 a 22.38041,22.38041 0 0 1 17.09056,-41.3696 l 143.86176,59.43296 a 22.38464,22.38464 0 0 1 -8.56064,43.06944 z"
               fill="#4f46a3"
               id="path1455" />
          </g>
          <g
             id="g1598"
             transform="matrix(0.03409606,0,0,0.03409606,141.29218,46.182613)">
            <path
               d="m 995.25984,455.83361 -189.57954,350.36458 -3.77554,0.15665 C 799.15862,745.11817 792.6721,686.3431 782.93753,631.18694 l 93.9314,-175.35333 z"
               fill="#ff4893"
               id="path1565" />
            <path
               d="m 247.52021,541.15575 c 7.80045,-30.00932 16.6271,-58.5225 26.39044,-85.32214 h 463.10976 c 19.05994,52.442 34.65763,111.46322 45.92032,175.35333 9.73457,55.15617 16.22108,113.92803 18.96722,175.1679 1.0294,22.08741 1.52812,44.48491 1.52812,67.16694 H 207.52696 c 0,-35.37693 1.24679,-70.0985 3.65086,-103.94411 5.77041,-82.11245 18.34063,-159.22815 36.34239,-228.42192 z m 489.5002,-169.89621 -463.10656,0.0639 c 46.41903,-90.9998 113.67867,-154.04593 190.20294,-170.95435 a 56.81536,56.81536 0 0 1 -1.12212,-11.16678 c 0,-25.92369 17.12581,-46.91775 38.30849,-46.91775 21.15071,0 38.30849,20.99406 38.30849,46.91775 0,3.27683 -0.28133,6.48971 -0.81201,9.57792 79.82986,14.12712 150.17771,78.36249 198.22077,172.47931 z"
               fill="#5fceff"
               id="path1567" />
            <path
               d="m 247.52021,541.15575 c -18.00176,69.19377 -30.57198,146.30947 -36.34239,228.41872 h -0.032 c -17.53181,11.72944 -37.65312,18.40458 -59.02442,18.40458 -68.132394,0 -123.349303,-67.63368 -123.349303,-151.08244 0,-83.41999 55.216909,-151.05047 123.349303,-151.05047 38.46514,-0.003 72.74873,21.55352 95.39878,55.30961 z m -48.66645,95.74086 c 0,-31.56942 -20.93332,-57.21498 -46.73233,-57.21498 -25.799,0 -46.73233,25.64236 -46.73233,57.21498 0,31.60138 20.93333,57.21497 46.73233,57.21497 25.79901,0 46.73233,-25.61359 46.73233,-57.21497 z"
               fill="#ffb578"
               id="path1569" />
            <path
               d="m 803.43287,895.8969 a 22.378321,22.378321 0 0 1 -22.37832,-22.37832 c 0,-22.503 -0.50511,-44.75025 -1.50254,-66.12474 -2.65982,-59.29936 -8.93535,-117.26241 -18.65393,-172.31627 -10.90464,-61.87286 -26.0164,-119.60893 -44.91329,-171.60016 a 22.381518,22.381518 0 0 1 42.06485,-15.28759 c 19.78244,54.42727 35.56874,114.68889 46.92414,179.11608 10.05426,56.94963 16.54398,116.85959 19.28692,178.04512 a 1472.3017,1472.3017 0 0 1 1.5473,68.16756 22.371927,22.371927 0 0 1 -22.37513,22.37832 z m -595.90591,0 a 22.378321,22.378321 0 0 1 -22.37832,-22.37832 c 0,-35.36734 1.24679,-70.86895 3.7084,-105.52977 5.76402,-82.01015 18.21596,-160.22878 37.00735,-232.47239 7.92513,-30.49846 17.01712,-59.88759 27.02342,-87.34579 a 22.384715,22.384715 0 0 1 42.05526,15.32276 c -9.52037,26.12829 -18.18718,54.14914 -25.76064,83.28891 -18.10406,69.59019 -30.10524,145.07227 -35.67744,224.36185 a 1451.4195,1451.4195 0 0 0 -3.59651,102.37443 22.381518,22.381518 0 0 1 -22.38152,22.37832 z"
               fill="#4f46a3"
               id="path1571" />
            <path
               d="M 803.43287,895.8969 H 207.52696 a 22.378321,22.378321 0 1 1 0,-44.75664 h 595.90911 a 22.378321,22.378321 0 1 1 -0.003,44.75664 z M 736.83179,478.21193 H 273.91065 a 22.378321,22.378321 0 1 1 0,-44.75664 h 462.92114 a 22.378321,22.378321 0 1 1 0,44.75664 z m 0.18862,-84.51013 H 273.91065 a 22.378321,22.378321 0 1 1 0,-44.75664 h 463.10976 a 22.378321,22.378321 0 1 1 0,44.75664 z M 152.12143,810.35737 c -80.354155,0 -145.727624,-77.81262 -145.727624,-173.46076 0,-95.62896 65.373469,-173.42879 145.727624,-173.42879 44.44974,0 85.84644,23.58675 113.6531,64.73408 a 22.379111,22.379111 0 0 1 -36.83791,25.42178 c -19.36045,-28.85205 -47.35892,-45.39922 -76.81519,-45.39922 -55.677261,0 -100.970982,57.72008 -100.970982,128.67215 0,70.96805 45.293722,128.70731 100.970982,128.70731 16.39692,0 32.07133,-4.92323 46.58208,-14.62903 a 22.381518,22.381518 0 0 1 24.88469,37.20236 c -21.69418,14.51075 -46.40944,22.18012 -71.46677,22.18012 z"
               fill="#4f46a3"
               id="path1573" />
            <path
               d="m 152.12143,716.4867 c -38.10708,0 -69.110647,-35.70621 -69.110647,-79.59009 0,-43.88389 31.003567,-79.5901 69.110647,-79.5901 38.10709,0 69.11065,35.70621 69.11065,79.5901 0,43.88388 -31.00356,79.59009 -69.11065,79.59009 z m 0,-114.42675 c -13.20001,0 -24.354,15.95255 -24.354,34.83346 0,18.88091 11.15079,34.83345 24.354,34.83345 13.20321,0 24.35401,-15.95254 24.35401,-34.83345 0,-18.88091 -11.154,-34.83345 -24.35401,-34.83346 z m 653.54288,226.51976 a 22.378321,22.378321 0 0 1 -19.66095,-33.0304 L 957.70902,478.21193 H 890.27355 L 802.66881,641.7559 a 22.391109,22.391109 0 0 1 -30.29705,9.15913 22.384715,22.384715 0 0 1 -9.15912,-30.29705 l 93.9346,-175.35333 a 22.378321,22.378321 0 0 1 19.72809,-11.81256 h 118.38771 a 22.378321,22.378321 0 0 1 19.68336,33.0304 L 825.36683,816.84708 a 22.378321,22.378321 0 0 1 -19.70252,11.73263 z M 273.91385,393.7018 a 22.378321,22.378321 0 0 1 -19.93589,-32.54767 c 47.01685,-92.16991 112.8283,-154.54788 186.84299,-177.71264 2.57031,-35.52718 28.71139,-63.53845 60.47902,-63.53845 31.01635,0 56.67149,26.70693 60.25842,61.03847 77.51531,20.83422 146.34783,84.06896 195.39152,180.14549 a 22.365533,22.365533 0 0 1 -0.84718,21.85722 22.365533,22.365533 0 0 1 -19.08232,10.69364 z M 501.29997,164.65969 c -7.5351,0 -15.93017,10.07663 -15.93017,24.53942 0,2.24423 0.22378,4.46288 0.69053,6.78703 a 22.378321,22.378321 0 0 1 -17.11622,26.23378 c -59.34731,13.1137 -114.13583,57.64336 -156.81768,126.72204 l 386.69099,-0.0543 C 654.34211,276.8486 597.04401,231.81383 534.89942,220.81329 A 22.378321,22.378321 0 0 1 516.7442,194.98551 c 0.32289,-1.88618 0.48593,-3.83309 0.48593,-5.78959 0,-14.4596 -8.39506,-24.53624 -15.93016,-24.53623 z"
               fill="#4f46a3"
               id="path1575" />
            <path
               d="m 311.57656,587.92964 a 22.397502,22.397502 0 0 1 -6.08371,-0.84718 22.375124,22.375124 0 0 1 -15.46342,-27.61165 659.60101,659.60101 0 0 1 14.95831,-46.54051 22.378761,22.378761 0 0 1 42.05526,15.31636 614.31688,614.31688 0 0 0 -13.9321,43.36599 22.397502,22.397502 0 0 1 -21.53434,16.31699 z"
               fill="#ffffff"
               id="path1577" />
            <path
               d="m 280.20855,831.13724 a 22.378321,22.378321 0 0 1 -22.37832,-22.37833 c 0,-60.77312 5.1566,-119.93821 15.32275,-175.85204 a 22.380072,22.380072 0 0 1 44.03734,8.01144 c -9.68981,53.27639 -14.60345,109.74648 -14.60345,167.8406 0,12.36243 -10.0159,22.37833 -22.37832,22.37833 z"
               fill="#ffffff"
               id="path1579" />
            <path
               d="m 393.50679,329.20428 a 22.378321,22.378321 0 0 1 -15.74475,-38.27971 c 17.551,-17.38157 37.17039,-29.99974 58.31151,-37.50607 a 22.371927,22.371927 0 0 1 28.57392,13.59963 22.375124,22.375124 0 0 1 -13.59962,28.57391 c -14.89437,5.29088 -28.95755,14.41804 -41.79631,27.13532 a 22.301595,22.301595 0 0 1 -15.74475,6.47692 z"
               fill="#ffffff"
               id="path1581" />
          </g>
        </g>
      </g>
    </g>
  </g>
</svg>
